<svg width="51" height="50" viewBox="0 0 51 50" fill="none" xmlns="http://www.w3.org/2000/svg">
<circle cx="25.7402" cy="24.9033" r="23.8483" fill="white" stroke="#5B5B5B" stroke-width="2.11"/>
<g clip-path="url(#clip0)">
<path d="M32.6014 22.6171H31.1605C30.7327 20.9601 29.8486 19.4564 28.6088 18.2767C27.3691 17.097 25.8233 16.2887 24.1471 15.9437C22.4709 15.5987 20.7315 15.7307 19.1266 16.3249C17.5217 16.919 16.1156 17.9514 15.0682 19.3047C14.0207 20.658 13.3738 22.278 13.201 23.9806C13.0283 25.6832 13.3365 27.4001 14.0908 28.9363C14.8451 30.4725 16.0151 31.7662 17.4679 32.6707C18.9207 33.5751 20.5981 34.0538 22.3095 34.0526H32.6014C34.1178 34.0526 35.5721 33.4502 36.6444 32.3779C37.7167 31.3056 38.3191 29.8513 38.3191 28.3348C38.3191 26.8184 37.7167 25.3641 36.6444 24.2918C35.5721 23.2195 34.1178 22.6171 32.6014 22.6171Z" fill="white" stroke="#5B5B5B" stroke-width="2.11" stroke-linecap="round" stroke-linejoin="round"/>
</g>
<defs>
<clipPath id="clip0">
<rect width="27.445" height="27.445" fill="white" transform="translate(12.0176 11.1816)"/>
</clipPath>
</defs>
</svg>
