<svg width="53" height="146" viewBox="0 0 53 146" fill="none" xmlns="http://www.w3.org/2000/svg">
<path d="M21.9501 85.8741L21.4118 86.9318L21.4344 86.9433L21.4575 86.9538L21.9501 85.8741ZM4.93698 78.7843L3.85055 78.3066L4.93698 78.7843ZM8.5566 111.392L7.53307 111.993L7.53751 112L8.5566 111.392ZM41.4992 139.959C42.0798 139.655 42.304 138.937 42 138.357L37.0447 128.895C36.7406 128.314 36.0234 128.09 35.4428 128.394C34.8621 128.698 34.6379 129.415 34.942 129.996L39.3467 138.407L30.9358 142.811C30.3552 143.115 30.131 143.832 30.4351 144.413C30.7391 144.994 31.4564 145.218 32.037 144.914L41.4992 139.959ZM4.30514 77.3138C4.15016 77.6391 3.99859 77.9699 3.85055 78.3066L6.02341 79.262C6.16173 78.9473 6.30329 78.6384 6.44796 78.3347L4.30514 77.3138ZM3.85055 78.3066C-1.56799 90.631 1.73659 102.118 7.5331 111.993L9.58009 110.791C3.98283 101.256 1.03455 90.609 6.02341 79.262L3.85055 78.3066ZM7.53751 112C9.71768 115.653 13.9553 121.388 19.6362 126.837C25.3125 132.282 32.5021 137.51 40.5945 140.04L41.3027 137.775C33.6891 135.395 26.8092 130.428 21.2793 125.124C15.754 119.825 11.6487 114.257 9.57568 110.784L7.53751 112ZM22.4884 84.8163C9.73004 78.3236 4.64425 67.5186 3.02437 53.1856C1.39222 38.7442 3.30683 21.0255 4.38286 0.885583L2.01265 0.758948C0.94841 20.6782 -0.995809 38.7501 0.665791 53.4522C2.33965 68.2627 7.70018 79.9539 21.4118 86.9318L22.4884 84.8163ZM21.4575 86.9538C26.0594 89.0534 33.1793 90.9505 39.4791 89.6C42.6626 88.9175 45.664 87.3977 47.9824 84.6372C50.2956 81.8827 51.848 77.9898 52.3148 72.6999L49.9504 72.4912C49.5148 77.4268 48.09 80.8182 46.1648 83.1107C44.2446 85.397 41.746 86.6865 38.9815 87.2791C33.3852 88.4788 26.8163 86.7898 22.4427 84.7943L21.4575 86.9538ZM52.3148 72.6999C52.9028 66.0386 51.4247 61.6179 48.4043 58.8814L46.8106 60.6404C49.0755 62.6925 50.5019 66.2434 49.9504 72.4912L52.3148 72.6999ZM6.44796 78.3347C9.9588 70.9657 17.1846 63.7985 25.0508 59.8798C32.9395 55.9498 41.0775 55.4461 46.8106 60.6404L48.4043 58.8814C41.6151 52.7302 32.2715 53.6308 23.9924 57.7552C15.6907 61.8909 8.06214 69.4281 4.30514 77.3138L6.44796 78.3347Z" fill="#e5e8ed"/>
</svg>
