<svg width="51" height="50" viewBox="0 0 51 50" fill="none" xmlns="http://www.w3.org/2000/svg">
<circle cx="25.7558" cy="24.9033" r="23.8483" fill="white" stroke="#5B5B5B" stroke-width="2.11"/>
<path d="M11.6387 17.1367L23.3385 19.9093C24.7542 20.2448 25.7528 21.498 25.7528 22.9393V24.3546M25.7528 24.3546C25.7528 25.2359 25.4961 26.0984 25.0135 26.8389L20.5737 33.6509C19.6568 35.0577 17.6466 35.2322 16.4965 34.0047L11.6387 28.8202M25.7528 24.3546L25.7528 23.3007C25.7528 21.6474 26.8981 20.21 28.5221 19.8251L39.8668 17.1367M25.7528 24.3546C25.7528 25.2359 26.0094 26.0984 26.492 26.8389L30.9318 33.6509C31.8487 35.0577 33.8589 35.2322 35.009 34.0047L39.8668 28.8202M11.672 17.1367L23.4681 19.9093C25.0087 20.3402 26.638 20.3534 28.1856 19.9474L28.6516 19.8251L39.8748 17.1367" stroke="#5B5B5B" stroke-width="2.10983" stroke-linecap="round" stroke-linejoin="round"/>
</svg>
