<svg width="51" height="50" viewBox="0 0 51 50" fill="none" xmlns="http://www.w3.org/2000/svg">
<circle cx="25.7568" cy="24.997" r="23.8483" fill="black" stroke="black" stroke-width="2.11"/>
<path d="M11.6387 17.2305L23.3385 20.003C24.7542 20.3385 25.7528 21.5917 25.7528 23.033V24.4484M25.7528 24.4484C25.7528 25.3296 25.4961 26.1922 25.0135 26.9326L20.5737 33.7446C19.6568 35.1515 17.6466 35.3259 16.4965 34.0984L11.6387 28.9139M25.7528 24.4484L25.7528 23.3945C25.7528 21.7412 26.8981 20.3037 28.5221 19.9189L39.8668 17.2305M25.7528 24.4484C25.7528 25.3296 26.0094 26.1922 26.492 26.9326L30.9318 33.7446C31.8487 35.1515 33.8589 35.3259 35.009 34.0985L39.8668 28.9139M11.672 17.2305L23.4681 20.003C25.0087 20.434 26.638 20.4472 28.1856 20.0412L28.6516 19.9189L39.8748 17.2305" stroke="white" stroke-width="2.10983" stroke-linecap="round" stroke-linejoin="round"/>
</svg>
