<svg width="51" height="51" viewBox="0 0 51 51" fill="none" xmlns="http://www.w3.org/2000/svg">
<circle cx="25.1972" cy="25.706" r="23.8483" fill="#FFB5B5" stroke="black" stroke-width="2.11"/>
<path d="M26.6564 31.3594H23.7208L23.4923 12.9902H26.9025L26.6564 31.3594ZM23.3693 36.9492C23.3693 36.4219 23.5275 35.9824 23.8439 35.6309C24.172 35.2676 24.6525 35.0859 25.2853 35.0859C25.9181 35.0859 26.3986 35.2676 26.7267 35.6309C27.0548 35.9824 27.2189 36.4219 27.2189 36.9492C27.2189 37.4766 27.0548 37.916 26.7267 38.2676C26.3986 38.6074 25.9181 38.7773 25.2853 38.7773C24.6525 38.7773 24.172 38.6074 23.8439 38.2676C23.5275 37.916 23.3693 37.4766 23.3693 36.9492Z" fill="black"/>
</svg>
