<svg width="63" height="15" viewBox="0 0 63 15" fill="none" xmlns="http://www.w3.org/2000/svg">
<path d="M1.83691 6.78653C1.33393 6.78653 0.92618 7.19428 0.92618 7.69727C0.92618 8.20025 1.33393 8.608 1.83691 8.608V6.78653ZM62.4809 8.34125C62.8366 7.98559 62.8366 7.40894 62.4809 7.05328L56.685 1.25741C56.3294 0.901742 55.7527 0.901742 55.3971 1.25741C55.0414 1.61307 55.0414 2.18971 55.3971 2.54538L60.5489 7.69727L55.3971 12.8492C55.0414 13.2048 55.0414 13.7815 55.3971 14.1371C55.7527 14.4928 56.3294 14.4928 56.685 14.1371L62.4809 8.34125ZM1.83691 8.608H61.8369V6.78653H1.83691V8.608Z" fill="#5B5B5B"/>
</svg>
