<svg width="51" height="50" viewBox="0 0 51 50" fill="none" xmlns="http://www.w3.org/2000/svg">
<circle cx="25.6703" cy="24.9033" r="24.0999" fill="black" stroke="black" stroke-width="1.60666"/>
<path d="M28.2899 41.1163V32.7912C28.6182 32.7715 28.9292 32.6321 29.1641 32.3974C29.418 32.1437 29.5625 31.7992 29.5664 31.4388V31.4379V30.1485V30.1485V30.1485V30.1485V30.1485V30.1484V30.1484V30.1484V30.1484V30.1483V30.1483V30.1483V30.1482V30.1482V30.1481V30.1481V30.148V30.148V30.1479V30.1479V30.1478V30.1478V30.1477V30.1476V30.1476V30.1475V30.1474V30.1473V30.1473V30.1472V30.1471V30.147V30.1469V30.1468V30.1468V30.1467V30.1466V30.1465V30.1464V30.1463V30.1462V30.1461V30.1459V30.1458V30.1457V30.1456V30.1455V30.1454V30.1452V30.1451V30.145V30.1449V30.1447V30.1446V30.1445V30.1443V30.1442V30.144V30.1439V30.1438V30.1436V30.1435V30.1433V30.1432V30.143V30.1428V30.1427V30.1425V30.1424V30.1422V30.142V30.1418V30.1417V30.1415V30.1413V30.1411V30.141V30.1408V30.1406V30.1404V30.1402V30.14V30.1398V30.1397V30.1395V30.1393V30.1391V30.1389V30.1387V30.1384V30.1382V30.138V30.1378V30.1376V30.1374V30.1372V30.137V30.1367V30.1365V30.1363V30.1361V30.1358V30.1356V30.1354V30.1352V30.1349V30.1347V30.1344V30.1342V30.134V30.1337V30.1335V30.1332V30.133V30.1327V30.1325V30.1322V30.132V30.1317V30.1315V30.1312V30.1309V30.1307V30.1304V30.1301V30.1299V30.1296V30.1293V30.1291V30.1288V30.1285V30.1282V30.128V30.1277V30.1274V30.1271V30.1268V30.1265V30.1263V30.126V30.1257V30.1254V30.1251V30.1248V30.1245V30.1242V30.1239V30.1236V30.1233V30.123V30.1227V30.1224V30.1221V30.1218V30.1215V30.1211V30.1208V30.1205V30.1202V30.1199V30.1196V30.1192V30.1189V30.1186V30.1183V30.1179V30.1176V30.1173V30.117V30.1166V30.1163V30.116V30.1156V30.1153V30.115V30.1146V30.1143V30.1139V30.1136V30.1132V30.1129V30.1126V30.1122V30.1119V30.1115V30.1112V30.1108V30.1105V30.1101V30.1098V30.1094V30.109V30.1087V30.1083V30.108V30.1076V30.1072V30.1069V30.1065V30.1061V30.1058V30.1054V30.105V30.1047V30.1043V30.1039V30.1036V30.1032V30.1028V30.1024V30.1021V30.1017V30.1013V30.1009V30.1005V30.1002V30.0998V30.0994V30.099V30.0986V30.0982V30.0979V30.0975V30.0971V30.0967V30.0963V30.0959V30.0955V30.0951V30.0947V30.0943V30.0939V30.0935V30.0931V30.0928V30.0924V30.092V30.0916V30.0912V30.0908V30.0904V30.0899V30.0895V30.0891V30.0887V30.0883V30.0879V30.0875V30.0871V30.0867V30.0863V30.0859V30.0855V30.0851V30.0847V30.0842V30.0838V30.0834V30.083V30.0826V30.0822V30.0818V30.0813V30.0809V30.0805V30.0801V30.0797V30.0792V30.0788V30.0784V30.078V30.0776V30.0771V30.0767V30.0763V30.0759V30.0755V30.075V30.0746V30.0742V30.0738V30.0733V30.0729V30.0725V30.072V30.0716V30.0712V30.0708V30.0703V30.0699V30.0695V30.069V30.0686V30.0682V30.0678V30.0673V30.0669V30.0665V30.066V30.0656V30.0652V30.0647V30.0643V30.0639V30.0634V30.063V30.0626V30.0621V30.0617V30.0613V30.0608V30.0604V30.06V30.0595V30.0591V30.0586V30.0582V30.0578V30.0573V30.0569V30.0565V30.056V30.0556V30.0552V30.0547V30.0543V30.0538V30.0534V30.053V30.0525V30.0521V30.0517V30.0512V30.0508V30.0503V30.0499V30.0495V30.049V30.0486V30.0481V30.0477V30.0473V30.0468V30.0464V30.046V30.0455V30.0451V30.0446V30.0442V30.0438V30.0433V30.0429V30.0425V30.042V30.0416V30.0411V30.0407V30.0403V30.0398V30.0394V30.039V30.0385V30.0381V30.0377V30.0372V30.0368V30.0364V30.0359V30.0355V30.035V30.0346V30.0342V30.034C29.7766 29.9427 29.9669 29.8102 30.1263 29.644C30.1265 29.6439 30.1266 29.6437 30.1268 29.6435L31.5133 28.243L31.5134 28.2429C31.7025 28.0516 31.8511 27.8236 31.9505 27.5727C32.0497 27.3221 32.0977 27.0538 32.0916 26.7841V19.2324C32.1054 18.8141 31.9888 18.4018 31.7582 18.0537C31.5377 17.7209 31.2236 17.4628 30.8567 17.3124L30.8567 12.7423L30.8567 12.7417C30.8529 12.2103 30.6412 11.7017 30.2676 11.327C29.8939 10.9523 29.3886 10.7419 28.8617 10.7419H22.5072C21.9803 10.7419 21.4749 10.9523 21.1013 11.327C20.7276 11.7017 20.516 12.2103 20.5121 12.7417H20.5121V12.7423V17.3115C20.1402 17.4575 19.8203 17.7136 19.5946 18.0467C19.3586 18.3953 19.2378 18.8102 19.2496 19.2322V26.7841C19.2434 27.0539 19.2914 27.3221 19.3906 27.5727C19.49 27.8236 19.6387 28.0516 19.8277 28.2429L19.8278 28.243L21.2143 29.6435C21.2145 29.6437 21.2147 29.6439 21.2148 29.6441C21.3742 29.8102 21.5645 29.9427 21.7747 30.034V30.0342V30.0346V30.035V30.0354V30.0358V30.0361V30.0365V30.0369V30.0373V30.0377V30.0381V30.0385V30.039V30.0394V30.0398V30.0402V30.0406V30.041V30.0414V30.0418V30.0422V30.0426V30.043V30.0434V30.0438V30.0443V30.0447V30.0451V30.0455V30.0459V30.0463V30.0467V30.0471V30.0476V30.048V30.0484V30.0488V30.0492V30.0497V30.0501V30.0505V30.0509V30.0513V30.0518V30.0522V30.0526V30.053V30.0534V30.0539V30.0543V30.0547V30.0551V30.0556V30.056V30.0564V30.0569V30.0573V30.0577V30.0581V30.0586V30.059V30.0594V30.0599V30.0603V30.0607V30.0611V30.0616V30.062V30.0624V30.0629V30.0633V30.0637V30.0642V30.0646V30.065V30.0655V30.0659V30.0663V30.0668V30.0672V30.0676V30.0681V30.0685V30.0689V30.0694V30.0698V30.0703V30.0707V30.0711V30.0716V30.072V30.0724V30.0729V30.0733V30.0737V30.0742V30.0746V30.0751V30.0755V30.0759V30.0764V30.0768V30.0772V30.0777V30.0781V30.0786V30.079V30.0794V30.0799V30.0803V30.0808V30.0812V30.0816V30.0821V30.0825V30.0829V30.0834V30.0838V30.0843V30.0847V30.0851V30.0856V30.086V30.0864V30.0869V30.0873V30.0878V30.0882V30.0886V30.0891V30.0895V30.0899V30.0904V30.0908V30.0912V30.0917V30.0921V30.0925V30.093V30.0934V30.0939V30.0943V30.0947V30.0952V30.0956V30.096V30.0965V30.0969V30.0973V30.0977V30.0982V30.0986V30.099V30.0995V30.0999V30.1003V30.1008V30.1012V30.1016V30.102V30.1025V30.1029V30.1033V30.1038V30.1042V30.1046V30.105V30.1055V30.1059V30.1063V30.1067V30.1072V30.1076V30.108V30.1084V30.1088V30.1093V30.1097V30.1101V30.1105V30.1109V30.1114V30.1118V30.1122V30.1126V30.113V30.1134V30.1139V30.1143V30.1147V30.1151V30.1155V30.1159V30.1163V30.1168V30.1172V30.1176V30.118V30.1184V30.1188V30.1192V30.1196V30.12V30.1204V30.1208V30.1212V30.1216V30.122V30.1224V30.1228V30.1232V30.1236V30.124V30.1244V30.1248V30.1252V30.1256V30.126V30.1264V30.1268V30.1272V30.1276V30.128V30.1284V30.1287V30.1291V30.1295V30.1299V30.1303V30.1307V30.1311V30.1314V30.1318V30.1322V30.1326V30.1329V30.1333V30.1337V30.1341V30.1345V30.1348V30.1352V30.1356V30.1359V30.1363V30.1367V30.137V30.1374V30.1378V30.1381V30.1385V30.1389V30.1392V30.1396V30.1399V30.1403V30.1407V30.141V30.1414V30.1417V30.1421V30.1424V30.1428V30.1431V30.1435V30.1438V30.1442V30.1445V30.1448V30.1452V30.1455V30.1459V30.1462V30.1465V30.1469V30.1472V30.1475V30.1479V30.1482V30.1485L21.7747 31.4379L21.7747 31.4388C21.7786 31.7992 21.9231 32.1437 22.177 32.3974C22.4119 32.6321 22.7229 32.7715 23.0512 32.7912V41.1163C23.0372 41.2174 23.0444 41.3203 23.0726 41.4184C23.1013 41.5184 23.151 41.6111 23.2184 41.69C23.2858 41.769 23.3693 41.8324 23.4632 41.8758C23.5572 41.9193 23.6594 41.9419 23.7628 41.9419C23.8662 41.9419 23.9684 41.9193 24.0624 41.8758C24.1563 41.8324 24.2398 41.769 24.3072 41.69C24.3746 41.6111 24.4244 41.5184 24.453 41.4184C24.4812 41.3203 24.4884 41.2174 24.4744 41.1163V32.7936H26.8667V41.1163C26.8527 41.2174 26.8599 41.3203 26.8881 41.4184C26.9168 41.5184 26.9665 41.6111 27.0339 41.69C27.1013 41.769 27.1848 41.8324 27.2787 41.8758C27.3727 41.9193 27.4749 41.9419 27.5783 41.9419C27.6817 41.9419 27.7839 41.9193 27.8779 41.8758C27.9718 41.8324 28.0553 41.769 28.1227 41.69C28.1901 41.6111 28.2399 41.5184 28.2685 41.4184C28.2967 41.3203 28.304 41.2174 28.2899 41.1163ZM29.4196 12.7432V17.1607H28.3038V14.6763V14.596H28.2235H26.9609H26.8806V14.6763V17.1607H24.4883V14.6763V14.596H24.408H23.1454H23.0651V14.6763V17.1607H21.9493V12.7432C21.9527 12.5957 22.013 12.4555 22.1172 12.3526C22.2215 12.2495 22.3615 12.1919 22.5071 12.192H22.5072H28.8617H28.8617C29.0074 12.1919 29.1474 12.2495 29.2517 12.3526C29.3559 12.4555 29.4162 12.5957 29.4196 12.7432ZM30.6961 26.7285L30.6961 26.7294C30.6965 26.8026 30.6817 26.8751 30.6527 26.9421C30.6236 27.0091 30.581 27.0691 30.5277 27.1184L30.5276 27.1183L30.5251 27.1209L29.1384 28.5215C29.1383 28.5217 29.1381 28.5218 29.138 28.522C29.034 28.6237 28.8951 28.6806 28.7506 28.6807H22.6599C22.5154 28.6806 22.3765 28.6237 22.2725 28.522C22.2723 28.5218 22.2722 28.5217 22.272 28.5215L20.8854 27.1209L20.8855 27.1208L20.8828 27.1184C20.8294 27.0691 20.7868 27.0091 20.7578 26.9421C20.7288 26.8751 20.714 26.8026 20.7144 26.7294V26.729V19.2319C20.7177 19.0829 20.7779 18.9409 20.882 18.8357C20.9862 18.7305 21.1263 18.6701 21.2732 18.6667H30.1789C30.3258 18.6701 30.4659 18.7305 30.5701 18.8357C30.6742 18.9409 30.7343 19.0827 30.7377 19.2317L30.6961 26.7285ZM28.1431 31.3015H23.2257V30.1728H28.1431V31.3015Z" fill="white" stroke="#5B5B5B" stroke-width="0.160666"/>
</svg>
